<?xml version="1.0" standalone="no"?>
<!DOCTYPE svg PUBLIC "-//W3C//DTD SVG 20010904//EN"
 "http://www.w3.org/TR/2001/REC-SVG-20010904/DTD/svg10.dtd">
<svg version="1.0" xmlns="http://www.w3.org/2000/svg"
 width="512.000000pt" height="512.000000pt" viewBox="0 0 512.000000 512.000000"
 preserveAspectRatio="xMidYMid meet">

<g transform="translate(0.000000,512.000000) scale(0.100000,-0.100000)"
fill="#000000" stroke="none">
<path d="M1477 5099 c-28 -15 -127 -132 -383 -452 -191 -238 -350 -431 -355
-430 -5 2 -110 70 -234 153 -124 82 -237 153 -251 156 -50 13 -131 -1 -172
-29 -100 -70 -110 -232 -20 -313 33 -30 585 -397 638 -424 56 -29 139 -25 194
9 25 16 171 190 435 520 218 273 407 513 420 534 55 90 17 224 -78 274 -57 30
-140 31 -194 2z"/>
<path d="M2360 4330 l0 -200 1380 0 1380 0 0 200 0 200 -1380 0 -1380 0 0
-200z"/>
<path d="M1472 3318 c-42 -27 -112 -108 -383 -448 -182 -228 -334 -418 -338
-422 -3 -4 -104 57 -223 137 -119 79 -233 151 -253 160 -82 34 -180 6 -239
-68 -25 -31 -31 -49 -34 -101 -5 -71 15 -121 65 -167 59 -56 632 -428 668
-435 63 -12 131 1 171 31 39 30 822 1003 850 1056 25 49 22 137 -6 187 -35 62
-86 93 -162 99 -58 4 -67 2 -116 -29z"/>
<path d="M2360 2560 l0 -200 1380 0 1380 0 0 200 0 200 -1380 0 -1380 0 0
-200z"/>
<path d="M1507 1565 c-22 -7 -50 -24 -64 -37 -14 -12 -170 -203 -346 -423
-176 -220 -327 -408 -337 -418 -17 -18 -26 -13 -243 132 -259 172 -296 187
-378 160 -86 -29 -138 -102 -139 -194 0 -55 27 -117 63 -148 47 -39 614 -414
642 -424 83 -31 163 -19 219 34 49 45 821 1016 835 1050 33 82 4 195 -63 241
-62 42 -123 51 -189 27z"/>
<path d="M2360 790 l0 -200 1380 0 1380 0 0 200 0 200 -1380 0 -1380 0 0 -200z"/>
</g>
</svg>
